<mxfile host="app.diagrams.net" modified="2023-11-11T11:03:50.381Z" agent="Mozilla/5.0 (Macintosh; Intel Mac OS X 10_15_7) AppleWebKit/537.36 (KHTML, like Gecko) Chrome/119.0.0.0 Safari/537.36" version="22.1.0" etag="BWc0Ha9FrlIpjqGIU1GP" type="github">
  <diagram name="第 1 页" id="YPvkgxc72pYJRDHyZyRr">
    <mxGraphModel>
      <root>
        <mxCell id="0" />
        <mxCell id="1" parent="0" />
      </root>
    </mxGraphModel>
  </diagram>
</mxfile>
